<svg height="512pt" viewBox="0 -92 512 512" width="512pt" xmlns="http://www.w3.org/2000/svg"><path d="m407.277344 77.585938c-7.699219-7.699219-20.269532-7.402344-27.59375.65625l-92.933594 101.757812 37.5.25 82.371094-75.070312c8.058594-7.324219 8.359375-19.894532.65625-27.59375zm0 0" fill="#dad8db"/><path d="m200.496094 191.835938c-2.699219 3.53125-8.035156 4.0625-11.378906 1.128906-6.941407-6.09375-11.84375-15.253906-12.90625-25.953125s1.949218-20.644531 7.558593-27.984375c2.699219-3.53125 8.035157-4.0625 11.378907-1.128906 6.941406 6.09375 11.84375 15.257812 12.90625 25.953124 1.058593 10.699219-1.949219 20.644532-7.558594 27.984376zm0 0" fill="#ccf49f"/><path d="m190.414062 198.328125c.152344 4.445313-3.640624 8.238281-8.085937 8.085937-9.230469-.3125-18.832031-4.289062-26.433594-11.890624-7.597656-7.601563-11.578125-17.203126-11.890625-26.429688-.152344-4.449219 3.640625-8.238281 8.085938-8.089844 9.230468.316406 18.832031 4.292969 26.433594 11.894532 7.601562 7.597656 11.578124 17.199218 11.890624 26.429687zm0 0" fill="#b3e59f"/><path d="m304 192c0 30.929688-25.070312 56-56 56s-56-25.070312-56-56 25.070312-56 56-56 56 25.070312 56 56zm0 0" fill="#fff5d7"/><path d="m288 192c0 22.089844-17.910156 40-40 40s-40-17.910156-40-40 17.910156-40 40-40 40 17.910156 40 40zm0 0" fill="#ffe09f"/><path d="m272 192c0 13.253906-10.746094 24-24 24s-24-10.746094-24-24 10.746094-24 24-24 24 10.746094 24 24zm0 0" fill="#fff5d7"/><path d="m276.324219 240c-10.195313-32.453125-40.503907-56-76.324219-56s-66.128906 23.546875-76.324219 56zm0 0" fill="#ffe09f"/><path d="m259.304688 240c-9.5-23.445312-32.453126-40-59.304688-40s-49.804688 16.554688-59.304688 40zm0 0" fill="#f6d190"/><path d="m241.527344 240c-8.304688-14.332031-23.769532-24-41.527344-24s-33.222656 9.667969-41.527344 24zm0 0" fill="#ffe09f"/><path d="m375.53125 240c-3.984375-35.996094-34.472656-64-71.53125-64s-67.546875 28.003906-71.53125 64zm0 0" fill="#ffe09f"/><path d="m359.363281 240c-3.890625-27.128906-27.160156-48-55.363281-48s-51.472656 20.871094-55.363281 48zm0 0" fill="#f6d190"/><path d="m343.195312 240c-3.707031-18.257812-19.84375-32-39.195312-32s-35.488281 13.742188-39.195312 32zm0 0" fill="#ffe09f"/><path d="m326.53125 240c-3.308594-9.300781-12.097656-16-22.53125-16s-19.222656 6.699219-22.53125 16zm0 0" fill="#f6d190"/><g fill="#eceaec"><path d="m248 112c-4.421875 0-8-3.582031-8-8 0-11.308594 5.976562-17.28125 10.34375-21.644531 3.921875-3.914063 5.65625-5.835938 5.65625-10.320313 0-4.5-1.734375-6.425781-5.65625-10.351562-4.367188-4.367188-10.34375-10.347656-10.34375-21.667969 0-11.316406 5.976562-17.296875 10.34375-21.664063 3.921875-3.925781 5.65625-5.851562 5.65625-10.351562 0-4.417969 3.578125-8 8-8s8 3.582031 8 8c0 11.316406-5.976562 17.296875-10.34375 21.664062-3.921875 3.925782-5.65625 5.851563-5.65625 10.351563 0 4.503906 1.734375 6.429687 5.65625 10.355469 4.367188 4.367187 10.34375 10.347656 10.34375 21.664062 0 11.304688-5.976562 17.277344-10.34375 21.640625-3.921875 3.917969-5.65625 5.835938-5.65625 10.324219 0 4.417969-3.578125 8-8 8zm0 0"/><path d="m218.46875 96.003906c-.828125 0-1.664062-.128906-2.492188-.402344-4.195312-1.375-6.484374-5.894531-5.109374-10.09375 1.539062-4.703124 3.726562-9.222656 6.523437-13.492187-6.234375-9.542969-9.390625-20.277344-9.390625-32 0-4.417969 3.578125-8 8-8s8 3.582031 8 8c0 10.222656 3.109375 19.046875 9.507812 26.980469 2.367188 2.933594 2.367188 7.121094-.007812 10.050781-3.421875 4.238281-5.851562 8.636719-7.429688 13.445313-1.101562 3.371093-4.234374 5.511718-7.601562 5.511718zm0 0"/><path d="m293.539062 96.007812c-.820312 0-1.65625-.128906-2.484374-.398437-4.195313-1.371094-6.492188-5.886719-5.117188-10.085937 1.367188-4.203126 2.0625-8.742188 2.0625-13.488282 0-10.238281-3.109375-19.066406-9.515625-26.992187-2.773437-3.4375-2.234375-8.476563 1.203125-11.25 3.429688-2.773438 8.46875-2.246094 11.25 1.195312 8.664062 10.734375 13.0625 23.199219 13.0625 37.046875 0 6.433594-.960938 12.640625-2.859375 18.449219-1.09375 3.378906-4.234375 5.523437-7.601563 5.523437zm0 0"/></g><path d="m384 328h-256c-4.421875 0-8-3.582031-8-8s3.578125-8 8-8h256c4.421875 0 8 3.582031 8 8s-3.578125 8-8 8zm0 0" fill="#ffe09f"/><path d="m504 232h-496c-4.417969 0-8 3.582031-8 8s3.582031 8 8 8h92c12.589844 0 24.445312 5.929688 32 16l28.800781 38.398438c4.53125 6.042968 11.644531 9.601562 19.199219 9.601562h152c7.554688 0 14.667969-3.558594 19.199219-9.601562l28.800781-38.398438c7.554688-10.070312 19.410156-16 32-16h92c4.417969 0 8-3.582031 8-8s-3.582031-8-8-8zm0 0" fill="#eceaec"/><path d="m412 248h-236c-4.417969 0-8-3.582031-8-8s3.582031-8 8-8h-168c-4.417969 0-8 3.582031-8 8s3.582031 8 8 8h92c12.589844 0 24.445312 5.929688 32 16l28.800781 38.398438c4.53125 6.042968 11.644531 9.601562 19.199219 9.601562h36l-5.46875-16.410156c-5.179688-15.539063 6.386719-31.589844 22.765625-31.589844h146.703125c7.554688-10.070312 19.410156-16 32-16zm0 0" fill="#dad8db"/></svg>